 <svg id="svg4196" xmlns:rdf="http://www.w3.org/1999/02/22-rdf-syntax-ns#" xmlns="http://www.w3.org/2000/svg" height="38" viewBox="0 0 1920 516.5625" width="150" fill="green" version="1.1" xmlns:cc="http://creativecommons.org/ns#" xmlns:dc="http://purl.org/dc/elements/1.1/">
    <path id="path4206" d="m728.44 514.93c0-2.7369 5.4666-7.2897 12.6-10.494 3.5787-1.6074 8.84-4.7055 11.692-6.8848 2.8519-2.1792 6.9262-5.0169 9.054-6.306 5.5295-3.3498 13.192-8.2695 33.083-21.241 9.6123-6.2684 18.953-12.341 20.758-13.494 1.8047-1.1536 9.6094-5.3263 17.344-9.2727 13.165-6.7173 16.252-8.1475 29.531-13.68 2.8359-1.1815 8.8572-3.6916 13.381-5.578 4.5234-1.8864 10.008-4.4495 12.188-5.6958 2.1797-1.2463 4.828-2.2711 5.885-2.2773 1.057-0.007 2.3248-0.41427 2.8174-0.9068 0.92199-0.92199 12.053-7.1104 18.698-10.395 2.0625-1.0196 5.6484-3.0976 7.9688-4.6178 2.3203-1.5202 6.5391-3.8619 9.375-5.2037s5.7891-2.8145 6.5625-3.2726c7.7473-4.5885 17.482-10.194 22.3-12.84 5.8644-3.2214 16.532-10.497 24.575-16.763 2.3203-1.8073 7.3522-5.6924 11.182-8.6335 3.8297-2.9411 12.951-10.199 20.269-16.129 21.169-17.153 33.739-26.141 47.493-33.961 8.3576-4.7519 9.2242-6.297 3.5564-6.3402-1.2891-0.01-3.7212-0.85768-5.4047-1.8841-1.6836-1.0264-5.6612-2.7422-8.8393-3.8129-3.1781-1.0706-7.285-2.7037-9.1266-3.6291-1.8415-0.9254-9.4653-3.4929-16.942-5.7056-12.51-3.7024-16.983-5.2165-22.031-7.4582-1.0312-0.4579-5.6718-2.1571-10.312-3.7759-4.6406-1.6189-10.547-3.6946-13.125-4.6127-2.5781-0.91813-11.016-3.8001-18.75-6.4044-18.042-6.075-24.615-8.3597-33.281-11.569-5.849-2.166-22.643-7.2848-44.062-13.43-2.3203-0.66571-7.8047-2.3069-12.188-3.647-16.516-5.0502-19.341-5.6247-40.312-8.1985-20.379-2.5011-31.553-1.2824-35.625 3.8855-1.1534 1.4638-6.7233 3.669-9.2672 3.669-1.5388 0-5.884 0.66266-9.6559 1.4726-4.0107 0.86118-11.117 1.4502-17.116 1.4186-5.642-0.0297-11.97 0.41414-14.062 0.98628-2.0924 0.57214-7.2406 1.7631-11.441 2.6465-7.006 1.4736-8.4758 2.2187-17.805 9.0255-14.205 10.364-32.809 22.097-40.783 25.72-1.3611 0.6185-2.9341 2.1327-3.4955 3.3649-0.879 1.9292-1.6746 2.2404-5.7284 2.2404-11.285 0-2.8778 3.211 10.87 4.1513 16.546 1.1317 41.635 7.621 53.082 13.73 0.89535 0.4778 2.0368 0.86874 2.5366 0.86874 1.8443 0 26.019 12.083 31.46 15.724 14.124 9.4523 15.129 13.375 8.9389 34.901-0.96383 3.3516-2.2474 7.9922-2.8523 10.312-0.60491 2.3203-2.1522 5.1423-3.4383 6.2711-2.3374 2.0514-3.6372 2.4591-11.555 3.6246-2.3203 0.34155-4.8516 1.168-5.625 1.8366-1.3826 1.1952-16.329 6.0802-18.603 6.0802-0.63947 0-2.0943 0.88049-3.2329 1.9566-3.0226 2.8568-8.6376 5.5403-11.642 5.564-2.3802 0.0187-7.9742 2.2644-11.522 4.6252-0.77344 0.51471-6.0469 3.0723-11.719 5.6835-13.09 6.0265-17.162 8.1999-20.463 10.922-1.4575 1.2022-2.9887 2.1859-3.4026 2.1859-0.41388 0-4.7057 3.8353-9.5374 8.5229s-9.8396 9.0772-11.129 9.7547c-3.3326 1.7514-6.2423 5.1022-7.9225 9.1232-1.2441 2.9776-3.7672 5.4116-5.6097 5.4116-1.2566 0-0.38803-4.5764 1.6903-8.9062 3.78-7.91 5.26-11.71 5.26-13.52 0-2.2169 11.522-13.612 15.832-15.657 1.8042-0.85616 4.3591-2.5576 5.6776-3.7809 1.3184-1.2233 3.232-2.4896 4.2524-2.814 4.0069-1.2736 10.276-7.8271 7.488-7.8271-1.3333 0-25.433 12.468-33.615 17.391-5.0993 3.068-12.043 7.1148-15.43 8.9928-3.3874 1.878-7.3304 4.7257-8.7622 6.3281s-2.799 2.9135-3.0382 2.9135c-0.23924 0-2.3103 1.2656-4.6023 2.8125s-4.6775 2.8125-5.301 2.8125c-1.6601 0-23.559 17.04-29.518 22.969-1.5548 1.5469-6.0964 5.5418-10.092 8.8777-3.9961 3.3359-7.2656 6.3804-7.2656 6.7656 0 0.38519-1.8467 2.7796-4.1037 5.3209s-4.8168 6.6687-5.6883 9.1719c-6.2143 17.849-8.4563 10.727-3.2892-10.449 2.5733-10.546 23.003-31.986 47.127-49.458 2.6732-1.9361 5.7041-4.278 6.7354-5.2044 3.2488-2.9182 13.022-10.016 15.561-11.301 1.3397-0.67809 3.5662-2.2042 4.9478-3.3914s3.7659-2.6779 5.2985-3.3127c1.5326-0.63482 2.7865-1.5163 2.7865-1.9589 0-0.44258 1.582-1.6547 3.5156-2.6935s5.0501-2.8404 6.9256-4.0034 5.7778-3.5167 8.6719-5.2303 5.2619-3.5066 5.2619-3.9844c0-1.5094-4.3424-0.9406-6.6704 0.87374-3.2102 2.5018-7.9622 4.8175-9.9236 4.8358-0.92795 0.008-4.6403 1.4848-8.2497 3.2803s-7.2164 3.265-8.0156 3.2655c-0.79921 0.0005-1.8539 0.36412-2.3438 0.80804-0.48984 0.44393-4.0547 2.488-7.9219 4.5425-22.886 12.158-43.721 26.666-50.625 35.251-7.5861 9.433-10.033 6.0129-4.0553-5.6674 3.1861-6.2253 25.275-29.308 28.046-29.308 0.38789 0 1.3713-0.57745 2.1853-1.2832 1.9778-1.7148 15.921-9.3746 23.511-12.916 3.3516-1.5638 9.2598-4.4588 13.129-6.4333 5.8598-2.9901 15.589-6.5321 28.062-10.216 2.8275-0.83511 3.6843-2.9015 1.203-2.9015-4.8636 0-30.3 7.4019-36.572 10.642-2.4289 1.2549-5.8927 2.8224-7.6974 3.4833-1.8047 0.66097-4.4011 1.9718-5.7697 2.9131-1.3687 0.94122-2.7715 1.7113-3.1174 1.7113-0.34588 0-3.4448 1.6618-6.8865 3.6928s-7.5233 3.9868-9.0702 4.3462c-3.4827 0.80912-11.394 6.2671-14.531 10.025-1.2891 1.5441-3.6808 4.3322-5.3149 6.1957l-2.9712 3.3882-0.66064-2.6322c-1.2953-5.1611 6.8218-17.124 15.083-22.23 1.6597-1.0258 3.5006-3.0215 4.0909-4.4349 1.6845-4.0337 15.253-12.552 22.75-14.283 2.7452-0.63366 8.3909-2.7814 12.546-4.7728 6.6813-3.202 12.048-4.7864 25.115-7.4142 5.4746-1.101 7.7486-3.7562 3.217-3.7562-1.8816 0-4.4535 0.39249-5.7152 0.87221-2.4279 0.92307-14.943 2.9784-20.123 3.3048-3.1588 0.19901-14.213 4.9337-15.4 6.5964-0.43508 0.60908-1.0025 0.59129-1.6453-0.0516-1.0319-1.0319 3.0298-5.8576 7.276-8.6447 1.1848-0.77764 2.7349-2.8039 3.4447-4.5028 2.5953-6.2114 17.853-9.8292 42.604-10.102 15.696-0.17316 17.373-2.4982 2.7026-3.7471-2.9393-0.25024-8.0018-1.2907-11.25-2.3122-3.2482-1.0214-7.5933-2.3137-9.6558-2.8717-7.6747-2.0762-16.004-4.8819-19.664-6.624-2.0756-0.98794-6.9379-2.4499-10.805-3.2488-12.831-2.6509-32.812-11.398-32.812-14.364 0-0.18656-0.88928-4.7576-1.9762-10.158l-1.9762-9.8187 1.9412-7.1412c2.103-7.7364 3.8115-10.653 13.378-22.836 7.6453-9.7362 23.199-24.765 31.225-30.171 3.7146-2.5021-2.0419-2.1695-12.123 0.70051-6.1875 1.7614-12.22 3.2121-13.406 3.2237-1.1858 0.0116-3.2951 0.59524-4.6875 1.297-1.3924 0.70173-4.43 1.5508-6.7503 1.8867-4.5726 0.66209-9.4562 1.6729-21.094 4.366-4.125 0.95459-10.242 2.2103-13.594 2.7904-3.3516 0.58014-8.5645 1.6942-11.584 2.4757-3.0198 0.78149-6.4433 1.1818-7.6078 0.88951-1.1645-0.29227-8.724 0.30718-16.799 1.3321-8.0749 1.0249-18.573 2.0984-23.33 2.3854-4.7564 0.28707-9.7772 0.95713-11.157 1.489-1.6446 0.63386-3.0711 0.65263-4.1399 0.0545-0.99662-0.55774-2.7524-0.59094-4.5152-0.0854-1.5864 0.45498-4.2144 0.57774-5.84 0.27278-1.6255-0.30495-5.4255-0.69413-8.4444-0.86484s-9.3288-0.56863-14.022-0.88427l-8.5332-0.57388 0.44612 6.9515 0.44611 6.9515-4.5692 5.9583c-13.227 17.248-34.584 35.297-51.913 43.872-8.5958 4.2536-14.577 7.8694-29.062 17.57-6.9609 4.6614-14.344 9.049-16.406 9.7501-2.0625 0.70108-4.4349 1.8373-5.2721 2.5249-0.87396 0.71789-4.8658 1.4445-9.375 1.7066-4.3191 0.25097-9.5404 0.84288-11.603 1.3154-2.0625 0.47247-4.9943 1.1229-6.515 1.4455-5.7972 1.2295-22.019 19.063-30.69 33.738-2.1326 3.6094-5.6335 8.8828-7.7799 11.719-5.2621 6.9526-5.1476 6.708-6.2029 13.261-0.99008 6.1478-2.2213 9.2392-3.6796 9.2392-1.2545 0-0.007-19.56 1.4344-22.5 0.63225-1.2891 1.1775-3.6906 1.2116-5.3368 0.0452-2.1786 2.6304-6.8102 9.5013-17.022 11.779-17.506 12.172-21.022 1.4705-13.163-2.0625 1.5147-5.7443 4.1468-8.1817 5.8491-11.554 8.0695-30.011 29.446-33.181 38.429-0.75542 2.1411-2.5757 5.1601-4.045 6.7089-3.7589 3.9621-6.2412 9.3276-8.5212 18.418-1.8597 7.415-4.7852 13.184-6.0463 11.923-0.31465-0.31466 0.0645-2.2068 0.84265-4.2048 0.77811-1.998 2.2663-8.0623 3.3071-13.476 4.2655-22.189 5.6737-25.89 14.072-36.985 2.5972-3.4314 4.7222-6.5563 4.7222-6.9443 0-1.3501 21.119-21.377 24.844-23.558 5.9844-3.5053 7.195-4.7791 5.9581-6.2695-1.485-1.7893-2.6843-1.2733-19.354 8.3276-8.1012 4.666-17.05 9.7576-19.886 11.315-13.146 7.2178-36.086 35.697-40.753 50.593-2.162 6.9006-3.6983 9.0947-5.2776 7.5376-0.91708-0.90421-0.84466-1.8763 0.34924-4.6875 0.82844-1.9507 1.6845-6.9217 1.9023-11.047 0.45775-8.6672 4.4669-19.892 9.3549-26.191 11.926-15.369 28.563-29.333 44.034-36.959 4.5117-2.224 8.2031-4.4423 8.2031-4.9295 0-1.7545-2.8924-1.9402-6.1492-0.39474-1.8269 0.86691-4.882 1.804-6.7893 2.0825-8.0587 1.1766-20.902 5.6924-30.408 10.692-0.89535 0.47086-2.1903 0.85612-2.8776 0.85612s-3.5407 1.7343-6.3408 3.854c-2.8002 2.1197-6.46 4.4447-8.1329 5.1667-1.6729 0.72199-4.1214 3.0231-5.4411 5.1136-2.5617 4.058-4.8112 4.4496-4.3806 0.76244 1.1465-9.816 28.594-34.584 38.325-34.584 0.27779 0 1.8345-0.59572 3.4593-1.3238 6.1853-2.7717 13.512-5.0876 17.991-5.6863 8.0883-1.0813 18.256-3.463 17.817-4.1736-1.3414-2.1704-32.866-0.52909-38.244 1.9911-4.1249 1.9331-5.3906 2.2112-5.3906 1.1845 0-0.73799 1.438-1.9426 3.1955-2.677 1.7575-0.73433 5.5525-2.8429 8.4333-4.6857 11.743-7.512 31.962-10.652 56.809-8.8217 18.76 1.3818 26.711-1.0125 39.666-11.944 9.6748-8.164 11.473-9.5709 14.24-11.139 1.5469-0.87682 5.5547-3.2326 8.9062-5.2352 7.8693-4.7018 29.017-15.451 31.861-16.194 3.572-0.93412 0.62688-3.482-4.025-3.482-2.5685 0-4.4857-0.63553-5.8861-1.9512-3.2696-3.0716-38.807-3.0522-49.138 0.0269-3.8672 1.1526-9.3534 2.2279-12.192 2.3896-2.8382 0.16165-7.6751 1.1778-10.749 2.2581-6.5333 2.2963-7.0597 2.3544-7.0597 0.77994 0-1.1541 11.607-7.3091 13.713-7.2719 0.58139 0.0102 1.583-0.61506 2.2258-1.3896 3.3902-4.0849-16.02-0.19311-23.439 4.6996-0.77344 0.51007-3.9375 0.94443-7.0312 0.96525-3.0938 0.0208-7.0388 0.39852-8.7668 0.83931-5.1907 1.3241-3.5613-2.2313 1.7356-3.7872 5.2707-1.5482 10.615-4.5087 13.69-7.5842 2.5847-2.5847 2.4588-3.767-0.25057-2.3539-0.94651 0.49366-4.674 1.1869-8.2834 1.5406-9.8564 0.96583-18.222 3.2292-23.289 6.3008-2.4967 1.5135-6.338 3.0878-8.5363 3.4985-2.1983 0.41069-6.3241 2.0782-9.1684 3.7056-6.0082 3.4376-9.1621 3.8324-9.1621 1.147 0-1.0637 0.87096-2.0769 2.1094-2.4538 6.2536-1.9031 12.105-5.5052 17.257-10.624 4.1452-4.1182 6.471-5.7352 8.2497-5.7352 1.3624 0 3.7939-0.681 5.4035-1.5133 1.6096-0.83234 4.2253-1.6822 5.8128-1.8885 1.5875-0.20635 4.3629-0.77246 6.1676-1.258 1.8047-0.48555 5.4961-1.3653 8.2031-1.955 4.842-1.0548 6.1159-2.1014 3.6906-3.032-1.4487-0.55593-5.95 0.0776-8.6125 1.2121-1.0312 0.43944-4.8281 1.2426-8.4375 1.7848-10.914 1.6395-15.556 3.3611-24.832 9.2085-8.5069 5.3626-12.199 6.4033-12.199 3.4384 0-0.70638 1.4766-1.9013 3.2812-2.6553 1.8047-0.75405 3.2812-1.8058 3.2812-2.3373 0-0.53146 1.7468-1.8574 3.8818-2.9467 2.135-1.0892 4.6962-2.739 5.6914-3.6662 2.2609-2.1064 17.161-9.3798 19.308-9.4247 9.5348-0.19949 3.4113-4.9155-7.7872-5.9974-21.328-2.0604-32.259-1.4743-38.602 2.0699-14.832 8.2878-65.935 5.6731-87.836-4.4942-5.0229-2.3318-13.559-4.5631-21.218-5.546-3.3516-0.43011-8.9826-1.878-12.513-3.2176-3.5308-1.3396-9.2261-2.7106-12.656-3.0469-3.4302-0.33624-6.6585-0.93742-7.1741-1.336-0.51562-0.39853-3.2578-1.9596-6.0938-3.469-15.1-8.0368-23.498-13.494-29.589-19.227-3.6977-3.4805-7.0959-6.3334-7.5517-6.3398-2.1067-0.0297-8.9474-7.6141-8.2705-9.1696 0.38298-0.88 0.88682-2.9513 1.1197-4.6029 0.25085-1.7794 1.3096-3.5836 2.5985-4.4282 1.1964-0.78388 2.4753-2.3709 2.8422-3.5267 2.2902-7.2158 13.286-21.147 20.1-25.467 2.3203-1.4708 5.3979-4.0021 6.8391-5.625 4.089-4.6045 13.786-17.616 13.786-18.498 0-0.43628 2.0772-2.39 4.6159-4.3416 2.5388-1.9516 8.2259-6.4247 12.638-9.9402 21.768-17.344 56.237-21.904 74.015-9.7919 1.4694 1.0012 1.9032 0.90761 2.8125-0.60656 1.8762-3.1241 13.794-15.976 15.914-17.161 4.2214-2.3602 4.2194-0.9099-0.0112 7.9941-3.6587 7.7006-2.0226 6.9434 8.3934-3.8843 5.2922-5.5013 10.157-10.002 10.812-10.002 1.4175 0 0.17805 2.7492-2.0868 4.6289-1.7268 1.4331-4.485 6.738-3.8392 7.3839 0.54704 0.54704 7.4488-5.7414 18.091-16.483 6.6593-6.7217 12.509-10.73 13.789-9.4497 0.19761 0.19762-2.1603 3.0941-5.2398 6.4365-3.0795 3.3425-7.7088 8.4787-10.287 11.414-2.5785 2.9352-6.1002 6.2093-7.826 7.2759-4.4229 2.7335-10.287 11.454-9.4586 14.066 0.9672 3.0474 2.5176 1.9113 5.7807-4.2359 3.4559-6.5103 2.256-5.2847 13.425-13.713 4.8844-3.6859 9.3141-7.0432 9.8438-7.4607 0.52964-0.4175 4.177-3.2891 8.1053-6.3812 4.0833-3.2142 7.651-6.8502 8.33-8.4895 1.8946-4.574 8.4339-8.7418 8.4339-5.3753 0 0.64819-1.8984 3.4929-4.2188 6.3215-2.3203 2.8286-4.2188 5.5772-4.2188 6.1079 0 0.53071-1.1898 2.4321-2.6441 4.2254-6.5998 8.1383-14.04 21.695-12.257 22.333 1.0859 0.38906 3.651-1.6052 3.651-2.8384 0-1.8559 15.18-19.511 21.301-24.774 3.5324-3.0375 8.6793-8.1713 11.438-11.408 5.565-6.5313 10.402-10.488 10.362-8.475-0.0137 0.67964-3.3887 4.777-7.5 9.1052s-7.4751 8.26-7.4751 8.7373-1.1848 2.6313-2.6328 4.7867c-1.4481 2.1554-3.1821 5.8174-3.8535 8.1377-1.0203 3.5265-3.0629 9.0956-5.4155 14.766-2.9546 7.1207 12.576-11.28 22.749-26.953 1.5061-2.3203 3.5388-4.8123 4.5171-5.5377 0.97832-0.72542 2.6676-2.4121 3.754-3.7483 10.479-12.888 15.598-13.857 6.8582-1.2994-2.7959 4.0173-6.7762 10.89-8.8451 15.273-2.0689 4.3828-5.1197 10.849-6.7795 14.37-1.6598 3.5208-2.7878 6.6315-2.5066 6.9127 1.0496 1.0496 3.4046-0.66711 3.4046-2.4819 0-1.0355 0.96662-2.5162 2.148-3.2903s2.7218-2.9987 3.423-4.9435c1.5118-4.1928 20.929-25.145 32.627-35.207 8.2775-7.1196 11.854-9.3735 7.5048-4.7295-1.418 1.514-2.5781 3.2361-2.5781 3.8268s-0.54788 1.4114-1.2175 1.8237c-1.9036 1.1722-9.6676 11.702-12.013 16.293-1.1648 2.2795-3.094 5.6135-4.2872 7.409s-2.1694 4.0236-2.1694 4.9513c0 0.92774-0.63281 1.9296-1.4062 2.2264-1.53 0.583-1.9 3.13-0.41 3.13 0.52668 0 1.4381-1.0547 2.0255-2.3438 0.58734-1.2891 1.422-2.3438 1.8549-2.3438 0.43285 0 0.78701-0.58116 0.78701-1.2915 0-0.7103 0.70265-1.8705 1.5614-2.5781 0.85879-0.70767 2.9174-3.396 4.5746-5.9742 4.0301-6.2696 16.434-18.965 23.395-23.945 3.0938-2.2134 7.2082-5.4304 9.1433-7.1489 3.54-3.143 6.33-4.046 6.33-2.05 0 0.97475-3.5443 5.2964-11.25 13.717-1.5468 1.6904-2.8124 3.3344-2.8124 3.6534 0 0.50197-6.0723 8.3721-7.4682 9.6794-1.4 1.31-8.47 12.231-8.47 13.08 0 1.896 1.7671 0.95501 3.8754-2.0636 1.1704-1.6758 2.3598-3.2578 2.643-3.5156 0.28323-0.25781 3.2567-3.6173 6.6077-7.4655s7.4437-8.1985 9.095-9.6673c1.6512-1.4688 5.2666-4.8594 8.0342-7.5345 2.7675-2.6752 7.5337-6.7385 10.591-9.0296 3.0578-2.2911 6.9244-5.4263 8.5924-6.9672 4.103-3.79 5.0351-2.4241 1.0644 1.5597-4.9135 4.9296-12.572 14.024-13.884 16.487-0.65234 1.2248-2.5513 4.0154-4.2199 6.2013-4.08 5.34-9.9 15.861-9.9 17.886 0 2.4571 2.8613-0.35194 9.6139-9.4383 5.9254-7.9732 17.164-19.542 24.136-24.845 2.3203-1.7648 6.0711-4.8069 8.3351-6.7602 3.4878-3.0092 6.6649-4.5296 6.6649-3.1895 0 0.19909-2.5881 3.0467-5.7513 6.3281s-7.1125 7.6536-8.7762 9.7161c-3.7479 4.6464-13.848 25.2-13.433 27.338 0.66737 3.4412 2.7422 1.9522 7.6445-5.4859 5.5298-8.3902 21.723-24.596 31.203-31.227 2.9486-2.0625 6.6624-4.9271 8.2529-6.3658 3.6221-3.2763 10.646-7.4557 11.854-7.0531 0.50009 0.1667-3.8472 5.1526-9.6607 11.08-8.8638 9.0371-19.458 22.54-19.458 24.8 0 0.33392-1.0547 2.1592-2.3438 4.0563-5.9656 8.7791-0.88862 6.1832 9.0571-4.6311 12.278-13.35 23.145-22.607 34.068-29.02 13.416-7.8767 13.523-6.9703 0.70396 5.996-19.946 20.175-26.251 38.282-6.6984 19.236 20.76-20.22 41.61-36.38 46.95-36.38 1.6688 0 0.47985 1.5375-5.9812 7.7344-7.4079 7.1051-15.604 17.283-20.007 24.844-0.97582 1.6758-2.0374 3.0469-2.3591 3.0469-0.53289 0-2.7608 4.1966-2.7608 5.2004 0 1.6232 3.1215-0.30274 7.0665-4.3598 2.5588-2.6315 6.9726-6.5012 9.8085-8.5993 2.8359-2.0982 6.6328-5.3534 8.4375-7.2339s4.9688-4.4742 7.0312-5.7638c9.8192-6.1396 20.656-13.449 20.938-14.121 0.45537-1.0892 4.8438-0.91703 4.8438 0.19004 0 0.51562-0.3384 0.9375-0.752 0.9375-1.6989 0-30.016 28.993-32.076 32.841-2.5083 4.6867 0.40408 3.583 6.3436-2.404 9.677-9.7546 14.529-12.954 39.317-25.928 13.147-6.8809 17.2-5.9281 6.1514 1.4461-12.676 8.461-32.668 30.608-27.629 30.608 0.40161 0 3.4602-2.7755 6.7969-6.1677s8.176-7.2372 10.754-8.5444c2.5781-1.3072 5.3203-2.8816 6.0938-3.4986 0.77344-0.61708 5.8359-3.1467 11.25-5.6213s12.008-5.5325 14.654-6.7953c4.2594-2.0331 13.46-4.9561 15.695-4.9865 1.8432-0.025075-1.8871 3.0114-7.1368 5.8095-3.0812 1.6422-8.8261 5.7625-12.767 9.1562-3.9405 3.3937-8.6984 7.3318-10.573 8.7515-3.1475 2.3833-8.31 8.7861-8.31 10.306 0 1.575 2.3994 0.31587 8.2531-4.3311 6.3443-5.0364 15.252-10.954 16.49-10.954 0.36988 0 2.4423-0.80253 4.6054-1.7834 6.9864-3.168 21.197-8.5291 22.607-8.5291 0.75412 0 1.6318-0.42188 1.9505-0.9375 0.67025-1.0845 4.224-1.2824 4.208-0.23438-0.006 0.38672-1.6952 1.5101-3.7539 2.4965-3.4438 1.6499-12.789 8.153-25.064 17.441-3.0629 2.3177-4.9219 4.4344-4.9219 5.6043 0 2.5793 0.1818 2.5054 6.9733-2.8318 3.2976-2.5915 9.7221-6.4169 14.277-8.501 13.187-6.0338 14.894-6.6487 23.204-8.3537 3.0512-0.62608 8.0574-1.9623 11.125-2.9693 6.1301-2.0124 9.2003-1.7402 7.2244 0.64054-0.63 0.766-1.68 1.394-2.33 1.394-1.4406 0-20.923 10.804-23.203 12.867-3.6173 3.2736-0.505 3.2718 6.916-0.0039 1.7386-0.76746 5.0596-2.2314 7.3799-3.2533s5.6953-2.3004 7.5-2.8412c13.759-4.1231 17.089-4.9928 17.508-4.5734 0.26321 0.26322-0.93173 1.2048-2.6554 2.0925-4.1947 2.1602-26.103 16.407-26.103 16.975 0 0.84003 5.929-0.8512 12.112-3.4549 3.3931-1.4288 12.022-4.5618 19.176-6.9622 7.1539-2.4004 14.619-5.1868 16.59-6.192 2.369-1.2086 3.7904-1.4914 4.1962-0.83478 0.79957 1.2937 1.2309 0.98425-8.4845 6.0878-14.435 7.5827-25.777 16.511-25.777 20.292 0 3.2575 3.9033 1.8521 11.282-4.0623 2.3379-1.8739 6.5567-4.5484 9.375-5.9432s5.8491-2.9182 6.7351-3.3855c0.88597-0.4672 3.577-1.2901 5.98-1.8286 2.403-0.53853 8.3754-2.6843 13.272-4.7684 8.2031-3.4914 14.914-3.9885 9.6058-0.71145-0.77344 0.47745-3.6126 2.2267-6.3093 3.8873-23.23 14.304-32.667 23.447-13.807 13.376 7.9705-4.2563 32.887-13.713 35.876-13.617 1.5658 0.0505-4.7441 4.0918-12.713 8.1424-4.7695 2.4243-8.6719 4.7422-8.6719 5.1508 0 0.40868-1.478 2.379-3.2843 4.3784-5.9259 6.5593-1.1685 7.4552 10.384 1.9556 3.1314-1.4907 8.1212-3.3428 11.088-4.1156 2.9672-0.77287 6.7275-2.07 8.3562-2.8825 1.8834-0.93954 3.0803-1.1198 3.2885-0.49524 0.18002 0.54009 0.77835 0.70323 1.3296 0.36254 0.62145-0.38408 0.72565-0.17184 0.27423 0.55857-0.40042 0.6479-2.2104 1.7974-4.0222 2.5544-3.2068 1.3399-13.352 8.507-13.352 9.4326 0 0.25441 1.861 0.18348 4.1356-0.15761 2.2746-0.3411 4.3742-0.23408 4.6659 0.23782 0.60991 0.98685 6.8578-0.31551 11.81-2.4617 1.7971-0.77888 4.4869-1.5581 5.9773-1.7317 1.4904-0.17353 5.5499-1.1613 9.0211-2.1951 10.734-3.1967 12.895-1.19 2.6762 2.4847-6.0981 2.1928-11.659 6.8839-10.804 9.1132 0.55713 1.4519 1.2522 1.2736 6.5204-1.6725 6.5399-3.6573 29.405-9.7106 30.927-8.1877 0.51341 0.51342-0.20564 1.4161-1.8036 2.2643-11.984 6.361-14.063 7.8181-14.716 10.318-0.90341 3.4546 0.7254 3.6648 6.511 0.84 7.6168-3.7188 30.392-9.0011 30.392-7.0488 0 0.47035-1.3711 1.6375-3.0469 2.5936-7.522 4.2917-12.961 8.2967-12.626 9.2962 0.54445 1.6217 12.087 1.1605 14.836-0.59285 1.2335-0.78674 4.9849-2.1297 8.3365-2.9843 3.3516-0.85461 8.1461-2.1584 10.655-2.8973 9.6146-2.8322 9.2244-0.86034-0.76843 3.8829-18.31 8.6911-13.933 12.229 9.6392 7.792 12.243-2.3045 15.232-1.5199 7.9559 2.088-9.5518 4.7361-4.9017 6.5886 9.1239 3.6347 7.9384-1.6719 12.019-1.9342 10.192-0.65515-0.21485 0.15035-2.1986 1.4319-4.4084 2.8479-7.0049 4.4886-1.0616 6.0318 9.554 2.4807 7.7205-2.5827 9.1306-2.467 8.7962 0.72172-0.26363 2.5142-0.10749 2.6005 6.7614 3.7376 3.8672 0.64019 8.0859 1.5762 9.375 2.08s5.7188 1.7832 9.8438 2.8431 9.8203 2.5937 12.656 3.4083c2.8359 0.81466 7.2656 2.0393 9.8438 2.7214 15.89 4.2041 28.758 8.1374 52.5 16.047 46.281 15.419 50.685 17.098 87.547 33.366 7.0212 3.0988 15.297 6.6576 18.391 7.9084 5.2458 2.1209 10.846 4.8891 27.187 13.439 3.6094 1.8885 9.0938 4.4028 12.188 5.5874 4.686 1.7943 11.465 4.5539 25.312 10.305 1.0313 0.42828 4.7416 2.0901 8.2453 3.6929 3.5036 1.6028 6.5368 2.9142 6.7405 2.9142 1.3698 0 18.154 8.5434 19.156 9.7507 0.6843 0.82463 2.2196 1.4993 3.4117 1.4993 2.0132 0 19.748 8.3521 32.759 15.428 9.6645 5.2557 22.079 11.838 33.281 17.647 5.9297 3.0746 11.182 5.961 11.672 6.4142 0.4898 0.45324 1.662 0.82407 2.6048 0.82407 0.9429 0 4.2545 1.2823 7.3591 2.8495 5.1112 2.5801 7.9259 3.4247 17.501 5.2515 3.0014 0.57263 9.3515-1.8368 28.832-10.94 3.0938-1.4457 8.5782-3.7886 12.188-5.2065 3.6094-1.4179 9.3146-3.9145 12.678-5.548 3.3636-1.6335 9.255-3.9236 13.092-5.089 3.837-1.1655 9.3117-3.29 12.166-4.7211 2.854-1.4312 6.2439-2.92 7.533-3.3086 3.5725-1.0769 30.269-14.576 40.312-20.384 4.8984-2.8327 13.547-7.606 19.219-10.607 5.6719-3.0014 13.477-7.1309 17.344-9.1767 17.41-9.21 36.23-18.416 37.662-18.424 0.8627-0.005 2.8542-1.0903 4.4253-2.4124 2.5538-2.1488 18.892-9.7837 20.936-9.7837 0.4471 0 4.0628-1.5467 8.0349-3.437 7.7221-3.675 14.782-6.9596 24.566-11.429 3.3516-1.531 9.3114-4.278 13.244-6.1044 13.936-6.4718 19.621-9.0297 20.069-9.0297 0.2496 0 4.5633-1.7706 9.5858-3.9348 16.061-6.9202 54.202-19.495 59.175-19.51 1.3514-0.0039 5.1992-0.84681 8.5508-1.873s9.2578-2.5504 13.125-3.387c3.8672-0.83661 8.5078-1.8615 10.312-2.2775 10.471-2.4136 16.371-3.5425 23.906-4.5736 4.6407-0.63507 11.18-1.7369 14.531-2.4485 7.0166-1.4898 12.971-2.5843 24.844-4.5667 19.338-3.2289 27.894-4.2168 40.781-4.7086 7.4766-0.28536 16.758-0.90857 20.625-1.3849 33.127-4.0804 91.376 3.2419 111.69 14.04 1.8748 0.99663 3.8561 1.8121 4.4029 1.8121 0.8803 0 6.3826 3.1432 15.591 8.9062 1.6477 1.0312 4.376 2.7188 6.063 3.75 9.5565 5.8421 21.603 17.399 27.852 26.719 1.9013 2.8359 5.0666 7.5307 7.034 10.433 1.9673 2.902 4.0095 6.4144 4.5384 7.8053 0.5287 1.3909 2.1922 4.3178 3.6966 6.5043s4.0754 8.1663 5.7134 13.288c1.6381 5.1221 3.5864 11.17 4.3296 13.44 3.7156 11.347 3.4084 40.321-0.5406 50.985-5.2951 14.3-6.8393 18.038-8.3687 20.261-0.9236 1.3418-3.2438 5.1818-5.1561 8.5333-9.9937 17.515-21.187 30.892-38.564 46.089-4.125 3.6075-9.8203 8.7405-12.656 11.407-2.8359 2.6663-8.2346 7.1681-11.997 10.004-3.7625 2.8359-8.4031 6.378-10.312 7.8712-3.055 2.3891-11.394 6.6148-29.316 14.855-16.986 7.81-30.992 13.184-58.531 22.457-6.1875 2.0836-12.094 4.1568-13.125 4.6072-2.6264 1.1471-16.299 5.6636-19.688 6.5034-1.5468 0.38336-7.664 1.9716-13.594 3.5294-18.144 4.7668-37.256 8.6516-52.031 10.576-13.33 1.7364-18.702 2.5166-21.094 3.0638-13.601 3.1111-110.44 3.5289-131.25 0.56622-3.3516-0.47715-9.4688-0.88434-13.594-0.90486-4.125-0.0205-11.086-0.65748-15.469-1.4155-4.3828-0.75797-13.664-2.0079-20.625-2.7776-14.236-1.5741-17.902-2.0091-28.594-3.3931-4.125-0.53394-10.242-1.3238-13.594-1.7553-13.759-1.7714-48.758-7.4276-49.749-8.04-0.3494-0.21593-3.9591-0.81721-8.0215-1.3362-4.0623-0.51894-11.816-1.8093-17.23-2.8674-10.293-2.0118-11.572-2.2732-29.062-5.944-5.9297-1.2445-16.266-3.3719-22.969-4.7276-20.153-4.076-33.302-7.1417-37.032-8.6344-1.9403-0.77633-8.1126-2.6706-13.716-4.2096-5.6038-1.5389-11.665-3.2277-13.47-3.7527-1.8047-0.52505-5.1024-1.3419-7.3283-1.8152-2.2259-0.47333-4.5462-1.1829-5.1562-1.5768-0.6101-0.3939-3.2186-1.1926-5.7968-1.775-2.5781-0.58234-5.9531-1.529-7.5-2.1038-1.5468-0.57473-9.1406-2.9908-16.875-5.369-7.7343-2.3782-15.328-4.8573-16.875-5.5091-2.9215-1.231-5.8356-2.1929-21.562-7.1179-10.822-3.389-26.719-10.653-26.719-12.21 0-2.587-16.733 6.0123-28.594 14.695-3.0937 2.2647-6.2578 4.4025-7.0312 4.7507-0.7734 0.34814-3.0938 1.7619-5.1563 3.1417s-5.4375 3.6252-7.5 4.9898c-5.992 3.9645-15.589 10.889-25.011 18.047-9.4372 7.1693-10.585 8-24.121 17.455-21.781 15.213-33.086 22.451-40.398 25.864-12.089 5.6427-16.773 7.699-17.537 7.699-0.42788 0-2.247 0.99434-4.0425 2.2096-4.0984 2.7741-50.249 26.4-53.421 27.348-2.3741 0.70939-15.044 6.3121-18.034 7.9748-0.89535 0.49787-2.2432 0.90521-2.9953 0.90521-0.75205 0-5.2929 1.9185-10.091 4.2634-4.7979 2.3449-11.426 5.3037-14.728 6.5752-3.3025 1.2715-9.6807 4.4154-14.174 6.9866-4.493 2.5712-8.541 4.6758-8.9954 4.6771-0.45444 0.00094-3.2095 1.5833-6.1223 3.5156-2.9128 1.9324-7.4948 4.779-10.182 6.3259-2.6874 1.5469-5.9994 3.4555-7.3602 4.2414-1.3607 0.78592-5.1406 3.2117-8.3997 5.3906s-6.2454 3.9617-6.6362 3.9617c-0.74714 0-5.8205 3.1358-16.12 9.9641-3.4002 2.2541-6.383 4.0984-6.6286 4.0984-0.24553 0-5.51 2.901-11.699 6.4467-13.444 7.7023-15.334 8.4403-15.334 5.9879zm865.36-172.7c6.3548-0.82328 15.814-1.7874 47.344-4.8251 5.6718-0.54646 13.476-1.4061 17.344-1.9104 3.8672-0.50423 9.3516-1.0855 12.188-1.2917 2.8359-0.2062 8.5313-1.0698 12.656-1.9191 4.125-0.84933 9.8203-1.8762 12.656-2.282 2.8359-0.4058 8.1094-1.7867 11.719-3.0687 3.6093-1.282 9.6885-2.8182 13.509-3.4138 7.7985-1.2156 29.614-7.3442 39.23-11.021 3.4776-1.3297 7.9133-2.7904 9.8571-3.2462 4.1455-0.97199 16.648-6.4022 31.18-13.543 5.6866-2.7942 10.749-5.0809 11.25-5.0816 0.5008-0.00067 3.2925-1.6547 6.2038-3.6755 2.9112-2.0209 6.7081-4.399 8.4375-5.2848 1.7293-0.88576 5.0427-3.178 7.363-5.0939s5.9063-4.6066 7.9688-5.9793c17.102-11.383 27.35-23.027 32.832-37.306 1.8482-4.814 4.1406-10.44 5.0942-12.503 5.0329-10.885 6.3921-31.63 2.8022-42.768-1.0603-3.2898-2.3046-7.9307-2.7652-10.313-0.4605-2.3824-2.166-6.585-3.7899-9.3391-1.6238-2.7541-4.4606-7.752-6.3039-11.106-4.8581-8.8409-10.722-16.182-17.834-22.328-3.4335-2.967-7.5179-6.723-9.0766-8.3466-4.5641-4.7542-29.306-13.442-45.964-16.139-3.6067-0.58397-10.565-1.7393-15.464-2.5675-20.835-3.5225-57.009-4.1498-80.489-1.3959-5.3392 0.62623-9.9178 0.92856-10.175 0.67184-0.2566-0.25672-1.3956-0.11359-2.531 0.31809-1.1354 0.43167-8.152 1.0738-15.592 1.427-7.4405 0.35318-13.822 0.82385-14.181 1.0459-0.3594 0.22207-3.108 0.62966-6.1082 0.90577s-9.4627 1.382-14.361 2.4575c-4.8984 1.0755-12.07 2.2459-15.938 2.6008-3.8672 0.35495-10.195 1.6092-14.062 2.7871-13.547 4.1264-15.498 4.6589-19.219 5.246-4.4145 0.69643-30.146 7.223-38.906 9.8681-3.3516 1.012-9.2578 2.6946-13.125 3.7389-3.8672 1.0444-8.9297 2.6692-11.25 3.6107s-8.6484 3.0568-14.062 4.7005c-16.094 4.8864-30.189 9.5693-34.688 11.525-6.3252 2.7492-27.754 13.634-34.688 17.62-3.3516 1.9267-8.2031 4.5459-10.781 5.8204-2.5781 1.2745-15.234 7.6878-28.125 14.252-12.891 6.5641-28.289 13.98-34.219 16.479-12.72 5.3613-34.648 15.288-39.541 17.901-1.8959 1.0123-11.177 5.0103-20.625 8.8845-14.805 6.0712-21.036 8.4727-37.803 14.571-1.5468 0.5626-5.5546 2.0442-8.9062 3.2925-9.7795 3.6424-22.737 8.0916-25.781 8.8526-3.9749 0.99363-15.35 5.141-16.067 5.8579-0.3294 0.32941 0.6189 1.062 2.1075 1.6279 1.4886 0.56594 3.34 1.597 4.1144 2.2913 1.6337 1.4648 3.4803 2.1992 24.727 9.8343 8.7002 3.1266 16.942 6.4846 18.315 7.4623 1.373 0.97771 4.8016 2.5929 7.6188 3.5892 2.8174 0.99638 9.3412 3.3066 14.497 5.1339 5.1563 1.8273 11.274 3.8391 13.594 4.4708 2.3203 0.63169 8.7347 2.7866 14.254 4.7888 5.5195 2.0022 11.028 3.6403 12.24 3.6403 1.2124 0 4.7121 0.79402 7.7771 1.7645 6.8975 2.184 10.552 3.1762 22.448 6.0946 5.1563 1.265 13.494 3.3892 18.527 4.7205 5.0338 1.3312 10.004 2.4205 11.046 2.4205 1.0414 0 5.1494 1.211 9.1289 2.6911 3.9794 1.4801 12.509 3.6505 18.954 4.8232 6.4453 1.1727 14.883 2.7104 18.75 3.4171 3.8672 0.70673 10.787 1.7117 15.377 2.2333 4.5901 0.52161 10.918 1.54 14.062 2.263 6.5155 1.4982 25.253 4.1179 34.311 4.7968 3.3516 0.25123 11.578 0.8575 18.281 1.3472 6.7032 0.48975 14.086 1.2746 16.406 1.7442 5.7637 1.1663 47.566 1.2857 56.25 0.16058z"/>
    </svg>